<?xml version="1.0" encoding="utf-8"?>
<svg version="1.1" id="Saama_Logo" xmlns="http://www.w3.org/2000/svg" xmlns:xlink="http://www.w3.org/1999/xlink" x="0px" y="0px"
	 viewBox="0 0 150.4 48.4" style="enable-background:new 0 0 150.4 48.4;" xml:space="preserve">
<path fill="#1E96DE" d="M18.2,22.8c1.1,2.7,1.7,5.8,1.5,9.3c-0.4,6.5-3.9,11-7.5,14.2c-0.2,0.1-0.6,0.4-0.5,0.7
	c1.7,0.5,3.5,0.9,5.2,1.4c6.6-3.5,11.4-15.6,6.6-24.4c-1.8-0.5-3.6-1-5.5-1.4C18.1,22.6,18.1,22.8,18.2,22.8 M1,10.2
	c-1.3,4.4-1.5,10.2,0.9,14.2c1.8,0.5,3.6,1,5.5,1.4c-1.1-2.8-1.8-5.9-1.6-9.6c0.4-6.5,3.9-11,7.5-14.2c0.2-0.1,0.6-0.4,0.5-0.7
	C12,0.9,10.2,0.5,8.4,0C5.1,2.3,2.4,5.6,1,10.2"/>
<g>
	<path d="M50.8,14.1v4.2c-1.8-1.6-8.8-2.7-9.1,0.9c-0.1,1.8,1.7,2.5,3.4,3.1c3.4,1.2,7.2,2.5,6.7,7.4c-0.6,5.6-9.4,6.8-14.9,4.5
		c0-1.4,0-3,0-4.4c0.4,0.2,1.5,1,2.4,1.3c2.6,0.9,8.1,1.3,7.7-2.4c-0.1-0.6-1-1.4-1.5-1.7c-2.3-1.3-5.6-1.7-7.4-3.7
		c-2.1-2.4-1.3-6.2,0.7-7.9C41.7,13,46.6,12.7,50.8,14.1"/>
	<path d="M59.2,26.8c-1.1,2,0.1,3.8,1.3,4.4c3.2,1.4,6.6-0.8,6.8-4.5c0-0.7,0-2.3,0-2.3c0,0-1.7,0.2-2.5,0.3
		C62.5,25,60.1,25.2,59.2,26.8 M72,34.6h-4.6c0-1,0-2.2,0-3.3c-1.1,1.7-2.7,3.5-5.4,3.8c-4.2,0.4-7.6-1.6-7.7-6c0-3.5,1.6-5.3,4-6.3
		c2.5-1,5.9-1.1,9.1-1.6c0.1-3.3-1.6-4.8-5.3-4.5c-2.7,0.2-4.6,1.7-5.7,2.4c0-1.3-0.1-2.6-0.1-3.9c3.1-2.4,10.5-3,13.5-0.3
		c1.7,1.5,2.2,4,2.2,6.9C72,26.4,72,34.6,72,34.6"/>
	<path d="M116,18.2c1.2-1.9,2.8-4.6,6.1-4.9c3.9-0.4,6.7,1.8,7.4,5.8c0.3,1.5,0.2,3.4,0.2,5c0,3.7,0,6.5,0,10.7h-4.9
		c-0.1-3.6,0-7.5,0-11.4c0-2.7-0.1-7.1-4-6.1c-2.4,0.6-4.2,3.8-4.3,7c-0.1,3.5,0,7.1,0.1,10.5h-4.9c-0.1-3.7-0.1-7.6-0.1-11.5
		c0-2.3,0.1-5.7-2.6-6.1c-0.6-0.1-1.3,0.1-1.8,0.3c-2.3,1-3.7,3.8-3.8,7.1c-0.1,3.4,0,7,0,10.2h-5c-0.1-7,0.3-13.6-0.2-21h4.8
		c0.2,1.5,0.2,2.9,0.4,4.4c1.1-1.6,2.6-4.5,5.8-4.8C112.6,12.8,115,14.7,116,18.2"/>
	<path d="M80.3,26.8c-1.1,2,0.1,3.8,1.3,4.4c3.2,1.4,6.6-0.8,6.8-4.5c0-0.7,0-2.3,0-2.3c0,0-1.7,0.2-2.5,0.3
		C83.6,25,81.2,25.2,80.3,26.8 M93.1,34.6h-4.6c0-1,0-2.2,0-3.3c-1.1,1.7-2.7,3.5-5.4,3.8c-4.2,0.4-7.6-1.6-7.7-6
		c0-3.5,1.6-5.3,4-6.3c2.5-1,5.9-1.1,9.1-1.6c0.1-3.3-1.6-4.8-5.3-4.5c-2.7,0.2-4.6,1.7-5.7,2.4c0-1.3-0.1-2.6-0.1-3.9
		c3.1-2.4,10.5-3,13.5-0.3c1.7,1.5,2.2,4,2.2,6.9C93.1,26.4,93.1,34.6,93.1,34.6"/>
	<path d="M137.6,26.8c-1.1,2,0.1,3.8,1.3,4.4c3.2,1.4,6.6-0.8,6.8-4.5c0-0.7,0-2.3,0-2.3c0,0-1.7,0.2-2.5,0.3
		C140.8,25,138.5,25.2,137.6,26.8 M150.4,34.6h-4.6c0-1,0-2.2,0-3.3c-1.1,1.7-2.7,3.5-5.4,3.8c-4.2,0.4-7.6-1.6-7.7-6
		c0-3.5,1.6-5.3,4-6.3c2.5-1,5.9-1.1,9.1-1.6c0.1-3.3-1.6-4.8-5.3-4.5c-2.7,0.2-4.6,1.7-5.7,2.4c0-1.3-0.1-2.6-0.1-3.9
		c3.1-2.4,10.5-3,13.5-0.3c1.7,1.5,2.2,4,2.2,6.9C150.4,26.4,150.4,34.6,150.4,34.6"/>
</g>
</svg>
