<svg xmlns="http://www.w3.org/2000/svg" width="201.133" height="35.732" viewBox="0 0 201.133 35.732">
    <path d="M66.326 35.732V7.388h4.823v2.693a7.468 7.468 0 0 1 6.215-3.215c5.34 0 10.035 4.471 10.035 10.814s-4.7 10.82-10.035 10.82a7.363 7.363 0 0 1-5.827-2.652v9.883zm5.211-21.137v6.172a5.711 5.711 0 0 0 4.912 2.865c3.521 0 5.65-2.559 5.65-5.951s-2.13-5.951-5.65-5.951a5.711 5.711 0 0 0-4.912 2.87zm-27.6 4.881V7.371h5.328v12.105a4.284 4.284 0 1 0 8.568 0V7.371h5.328v12.105a9.613 9.613 0 1 1-19.225 0zm44.458 5.287 2.911-3.779s2.734 2.953 6.214 2.953c2.131 0 3.909-.605 3.909-1.867 0-1.344-.957-1.607-4.085-2.258-4.084-.869-7.646-2.605-7.646-6.52 0-3.211 3.216-6.426 8.861-6.426a13.144 13.144 0 0 1 7.734 2.516l-2.605 3.826a9.566 9.566 0 0 0-5.129-1.783c-1.954 0-3.732.693-3.732 1.955s1.391 1.566 4.865 2.3c4.084.869 7 2.213 7 6.473 0 3.521-3.738 6.344-8.99 6.344a12.84 12.84 0 0 1-9.306-3.733zm81.07-.65-.105-.17 2.143-1.832.141.242a7.638 7.638 0 0 0 6.49 3.4c1.831 0 4.936-.68 4.936-3.244 0-2.061-2.213-2.717-5.335-3.422-4.993-1.1-7.218-2.992-7.218-6.139a5.405 5.405 0 0 1 1.948-4.031 7.986 7.986 0 0 1 5.275-1.8A9.913 9.913 0 0 1 185 9.974l.135.152-1.784 2-.176-.189a7.859 7.859 0 0 0-5.435-2.141c-2.623 0-4.46 1.3-4.46 3.156 0 2.207 2.283 2.875 5.769 3.645 3.551.793 6.831 2.055 6.831 5.916 0 3.891-3.9 5.926-7.746 5.926a10.45 10.45 0 0 1-8.668-4.326zm-16.912 3.867V0h5.217v27.98zm-10.123 0V0h5.217v27.98zm-9.952 0V9.671h5.205V27.98zm-9.63 0-7.863-10.135V27.98h-5.211V0h5.211v14.371l6.237-6.977h6.731l-7.887 8.58 9.647 12.006zm40.5-.064V9.371h2.723v18.545zm27.7-6.168V9.965h-3.157V7.418h3.157V.688h2.717v6.73h7.1v2.547h-7.1v11.35c0 2.588 1.063 3.85 3.239 3.85a5.881 5.881 0 0 0 2.829-.875l.229-.146 1.063 2.389-.177.105a8.8 8.8 0 0 1-4.025 1.2c-3.619.002-5.867-2.338-5.867-6.09zm-59.4-18.045a3.43 3.43 0 1 1 3.427 3.434 3.406 3.406 0 0 1-3.423-3.437zm31.09-.07a1.966 1.966 0 1 1 1.966 1.973 1.966 1.966 0 0 1-1.967-1.973zM15.3 35.551V26.69a9.173 9.173 0 0 0 2.553.363 9.043 9.043 0 0 0 2.623-.387v8.873a17.6 17.6 0 0 1-2.623.193 18.318 18.318 0 0 1-2.553-.181zm7.582-8.9 7.347 4.207a17.748 17.748 0 0 1-3.485 2.594 17.96 17.96 0 0 1-3.979 1.672zm-13.879 6.8a18.132 18.132 0 0 1-3.485-2.594l7.347-4.207.124 8.473A18.127 18.127 0 0 1 9 33.449zm15.111-8.867a9.222 9.222 0 0 0 2.623-4.436l7.635 4.5a17.623 17.623 0 0 1-2.623 4.432zm-22.787.053 7.635-4.5a9.149 9.149 0 0 0 2.617 4.43l-7.64 4.5a17.943 17.943 0 0 1-2.613-4.436zm26.525-6.748 7.323-4.312a17.793 17.793 0 0 1-.006 8.631zM0 17.883A17.79 17.79 0 0 1 .522 13.6l7.295 4.3-7.289 4.295A17.706 17.706 0 0 1 0 17.881zm1.314-6.73a17.719 17.719 0 0 1 2.618-4.437l7.634 4.5a9.2 9.2 0 0 0-2.611 4.441zm22.811.047 7.635-4.5a17.779 17.779 0 0 1 2.617 4.426l-7.641 4.506a9.157 9.157 0 0 0-2.611-4.435zM22.764.714a17.94 17.94 0 0 1 7.464 4.266l-7.347 4.207zM5.517 4.98A17.908 17.908 0 0 1 12.988.714l-.124 8.473zm12.335 3.738a8.961 8.961 0 0 0-2.553.363V.22a17.463 17.463 0 0 1 2.553-.187 18.415 18.415 0 0 1 2.623.193v8.873a9.244 9.244 0 0 0-2.623-.384z"/>
</svg>
